<svg width="162px" height="55px" viewBox="0 0 162 55" version="1.1" xmlns="http://www.w3.org/2000/svg" xmlns:xlink="http://www.w3.org/1999/xlink">
    <g id="Modules" stroke="none" stroke-width="1" fill="none" fill-rule="evenodd">
        <g id="Nav-+-Menu" transform="translate(-140.000000, -32.000000)">
            <g id="Nav">
                <g id="Page-1" transform="translate(140.000000, 32.000000)">
                    <path d="M25.962687,16.7597941 L61.545177,16.7597941 C62.651232,18.5978456 63.458802,20.5924044 63.942777,22.6824044 L23.563467,22.6824044 C24.049467,20.5924044 24.856632,18.5978456 25.962687,16.7597941 Z M26.000028,38.0879853 C24.886278,36.2503382 24.070608,34.2561838 23.578938,32.1649706 L63.928683,32.1649706 C63.436608,34.2561838 62.620533,36.2503382 61.507593,38.0879853 L26.000028,38.0879853 Z" id="Combined-Shape" fill="#000000"></path>
                    <path d="M11.144385,16.7597941 L11.144385,11.6439853 L5.03334,11.6439853 L5.03334,16.7597941 L0,16.7597941 L0,22.6824044 L5.03334,22.6824044 L5.03334,27.7986176 L11.144385,27.7986176 L11.144385,22.6824044 L15.47505,22.6824044 C15.8112,20.6429559 16.366455,18.6597206 17.12664,16.7597941 L11.144385,16.7597941 Z" id="Fill-3" fill="#000000"></path>
                    <path d="M87.7999095,35.1196434 L79.4322045,26.7782463 L75.8722545,30.3322169 L77.7081195,32.1646066 L72.0235395,32.1646066 C71.6821245,34.2044596 71.1224145,36.1880993 70.3573695,38.0880257 L77.7081195,38.0880257 L75.8730645,39.9204154 L79.4322045,43.474386 L87.7999095,35.1325846 L87.7926195,35.126114 L87.7999095,35.1196434 Z" id="Fill-7" fill="#000000"></path>
                    <path d="M28.226151,11.8880882 C24.247431,15.8646691 21.795561,21.3294853 21.794346,27.3936397 C21.795561,33.4565809 24.247431,38.9226103 28.226151,42.8983824 C32.208516,46.8713235 37.680471,49.3204412 43.754256,49.3216544 C49.827231,49.3204412 55.299591,46.8713235 59.281551,42.8983824 C63.260271,38.9226103 65.712951,33.4565809 65.713356,27.3936397 C65.712951,21.3294853 63.260271,15.8646691 59.281551,11.8880882 C55.299591,7.91514706 49.827231,5.46683824 43.754256,5.46481618 C37.680471,5.46683824 32.208516,7.91514706 28.226151,11.8880882 M16.320771,27.3936397 C16.321581,12.2629779 28.602396,0.000808823529 43.754256,0 C58.906116,0.000808823529 71.185716,12.2629779 71.187741,27.3936397 C71.185716,42.5234926 58.906116,54.7848529 43.754256,54.7872794 C28.602396,54.7848529 16.321581,42.5234926 16.320771,27.3936397" id="Fill-9" fill="#000000"></path>
                    <polygon id="Fill-11" fill="#000000" points="103.814419 17.6444449 103.814419 7.02297426 110.966315 7.02297426 110.966315 9.18334191 106.294235 9.18334191 106.294235 11.1936728 110.710355 11.1936728 110.710355 13.2480846 106.294235 13.2480846 106.294235 15.4537463 111.23564 15.4537463 111.23564 17.6444449"></polygon>
                    <path d="M122.711396,12.2283199 C122.711396,11.7689081 122.638901,11.3430625 122.493101,10.9532096 C122.348111,10.5633566 122.142776,10.2285037 121.877501,9.94824632 C121.611821,9.66839338 121.293896,9.45041544 120.923321,9.29552574 C120.552746,9.14063603 120.146531,9.06339338 119.706296,9.06339338 C119.276186,9.06339338 118.877261,9.14063603 118.511951,9.29552574 C118.146236,9.45041544 117.828716,9.66839338 117.558176,9.94824632 C117.288041,10.2285037 117.077441,10.5633566 116.927186,10.9532096 C116.776931,11.3430625 116.701601,11.7689081 116.701601,12.2283199 C116.701601,12.708761 116.773691,13.1459301 116.920301,13.5414449 C117.064886,13.9365551 117.269816,14.2766654 117.535901,14.5609669 C117.800771,14.8460772 118.116671,15.0664816 118.482386,15.2217757 C118.847291,15.3766654 119.251076,15.4539081 119.691311,15.4539081 C120.122636,15.4539081 120.523181,15.3766654 120.893756,15.2217757 C121.263926,15.0664816 121.584686,14.8460772 121.855226,14.5609669 C122.126171,14.2766654 122.335151,13.9365551 122.486216,13.5414449 C122.635661,13.1459301 122.711396,12.708761 122.711396,12.2283199 L122.711396,12.2283199 Z M119.616791,17.6446066 C118.775201,17.6446066 118.003676,17.5240919 117.302216,17.2846801 C116.601566,17.0440551 116.003381,16.6922169 115.506851,16.2255257 C115.011536,15.761261 114.626381,15.1914449 114.350171,14.5156728 C114.075176,13.841114 113.937071,13.0686875 113.937071,12.1987978 C113.937071,11.3879522 114.082466,10.6482831 114.373256,9.97857721 C114.663641,9.30846691 115.066616,8.73339338 115.582991,8.25295221 C116.098556,7.77291544 116.709296,7.40045221 117.415211,7.1355625 C118.121531,6.86986397 118.885766,6.73802574 119.706296,6.73802574 C120.527231,6.73802574 121.289846,6.86986397 121.990496,7.1355625 C122.691551,7.40045221 123.297026,7.77089338 123.807731,8.24526838 C124.318841,8.72085662 124.716956,9.29148162 125.002481,9.95552574 C125.287196,10.6211875 125.430566,11.3539816 125.430566,12.1543125 C125.430566,12.5635772 125.385206,12.9461507 125.294891,13.3012243 C125.205386,13.6562978 125.085101,13.9782096 124.934846,14.2685772 C124.785401,14.5589449 124.614086,14.8165551 124.424546,15.0410037 C124.233386,15.2670699 124.043846,15.4539081 123.852686,15.603136 L123.852686,15.6484301 L126.091931,15.603136 L126.091931,17.6446066 L119.616791,17.6446066 Z" id="Fill-13" fill="#000000"></path>
                    <path d="M137.589597,15.3868162 C137.373327,15.9113382 137.065932,16.3610441 136.665792,16.7371471 C136.264842,17.1116324 135.780867,17.4040221 135.215892,17.6143162 C134.649702,17.8233971 134.021142,17.9293529 133.330212,17.9293529 C132.628752,17.9293529 131.997762,17.8233971 131.438457,17.6143162 C130.876317,17.4040221 130.400847,17.1116324 130.010427,16.7371471 C129.619602,16.3610441 129.319497,15.9113382 129.109302,15.3868162 C128.898702,14.8614853 128.793402,14.2779191 128.793402,13.6389485 L128.793402,7.02277206 L131.347332,7.02277206 L131.347332,13.4278456 C131.347332,13.7186176 131.384997,13.9936176 131.459517,14.2540588 C131.535252,14.5145 131.650677,14.7462279 131.805387,14.9512647 C131.961312,15.1567059 132.165432,15.3184706 132.420987,15.4389853 C132.676542,15.5586912 132.985152,15.6185441 133.345197,15.6185441 C133.706457,15.6185441 134.014257,15.5586912 134.269002,15.4389853 C134.524152,15.3184706 134.733132,15.1567059 134.892297,14.9512647 C135.053082,14.7462279 135.168102,14.5145 135.238167,14.2540588 C135.307827,13.9936176 135.343467,13.7186176 135.343467,13.4278456 L135.343467,7.02277206 L137.912382,7.02277206 L137.912382,13.6389485 C137.912382,14.2779191 137.804652,14.8614853 137.589597,15.3868162" id="Fill-15" fill="#000000"></path>
                    <path d="M146.278508,9.85854779 L144.925403,13.5043199 L147.599618,13.5043199 L146.278508,9.85854779 Z M149.133352,17.6442831 L148.305937,15.5587316 L144.189112,15.5587316 L143.408677,17.6442831 L140.613772,17.6442831 L145.075252,7.0228125 L147.569242,7.0228125 L151.986577,17.6442831 L149.133352,17.6442831 Z" id="Fill-17" fill="#000000"></path>
                    <polygon id="Fill-19" fill="#000000" points="154.688778 17.6444449 154.688778 7.02297426 157.273893 7.02297426 157.273893 15.4088566 161.389098 15.4088566 161.389098 17.6444449"></polygon>
                    <polygon id="Fill-21" fill="#000000" points="113.242131 32.7883713 113.301666 25.2727831 113.256306 25.2727831 110.492181 32.7883713 108.689121 32.7883713 106.000731 25.2727831 105.955371 25.2727831 106.015311 32.7883713 103.597056 32.7883713 103.597056 22.1677096 107.252181 22.1677096 109.674486 28.9780037 109.734021 28.9780037 112.050621 22.1677096 115.765686 22.1677096 115.765686 32.7883713"></polygon>
                    <polygon id="Fill-23" fill="#000000" points="118.076454 32.7883713 118.076454 22.1677096 125.228349 22.1677096 125.228349 24.3272684 120.555459 24.3272684 120.555459 26.3375993 124.972794 26.3375993 124.972794 28.3928199 120.555459 28.3928199 120.555459 30.5984816 125.498889 30.5984816 125.498889 32.7883713"></polygon>
                    <path d="M133.472975,25.002636 L132.121085,28.6480037 L134.795705,28.6480037 L133.472975,25.002636 Z M136.328224,32.7883713 L135.501619,30.7036287 L131.384794,30.7036287 L130.603549,32.7883713 L127.809454,32.7883713 L132.271339,22.1677096 L134.765329,22.1677096 L139.182664,32.7883713 L136.328224,32.7883713 Z" id="Fill-25" fill="#000000"></path>
                    <polygon id="Fill-27" fill="#000000" points="148.253085 32.7883713 143.97183 25.8425993 143.92728 25.8425993 143.98722 32.7883713 141.493635 32.7883713 141.493635 22.1677096 144.422595 22.1677096 148.68927 29.0977096 148.734225 29.0977096 148.67469 22.1677096 151.169085 22.1677096 151.169085 32.7883713"></polygon>
                    <path d="M159.969614,24.9272132 C159.748889,24.6477647 159.460529,24.4245294 159.105749,24.2595294 C158.749349,24.0945294 158.406719,24.011625 158.076644,24.011625 C157.905329,24.011625 157.733204,24.0269926 157.557434,24.0569191 C157.382879,24.0876544 157.224929,24.1446765 157.084394,24.2291985 C156.944669,24.3149338 156.826409,24.4245294 156.731639,24.5600074 C156.636464,24.6946765 156.589079,24.8673603 156.589079,25.07725 C156.589079,25.2568088 156.626744,25.4076544 156.702074,25.5269559 C156.776189,25.6474706 156.887159,25.7526176 157.031744,25.8428015 C157.176734,25.9321765 157.350479,26.0146765 157.551359,26.0898971 C157.751024,26.1651176 157.975799,26.2427647 158.226089,26.3228382 C158.587349,26.4425441 158.962379,26.5747868 159.353609,26.7191618 C159.743624,26.86475 160.099214,27.0580588 160.419164,27.2970662 C160.740734,27.5380956 161.006414,27.8349338 161.215799,28.1904118 C161.426804,28.5450809 161.532509,28.9875074 161.532509,29.5185 C161.532509,30.1279485 161.419514,30.6557059 161.193524,31.1005588 C160.968344,31.5462206 160.664999,31.9126176 160.285109,32.2033897 C159.903599,32.4933529 159.468224,32.7085 158.977364,32.8476176 C158.487314,32.9887574 157.981064,33.059125 157.460234,33.059125 C156.698834,33.059125 155.963354,32.9256691 155.252174,32.6607794 C154.539779,32.3954853 153.950099,32.0185735 153.479084,31.5280221 L155.161859,29.8181691 C155.422274,30.1376544 155.765309,30.4049706 156.190154,30.6205221 C156.617024,30.8356691 157.039439,30.9424338 157.460234,30.9424338 C157.650584,30.9424338 157.836479,30.9226176 158.016299,30.8833897 C158.196524,30.8433529 158.354474,30.7774338 158.489339,30.6888676 C158.625014,30.5982794 158.731934,30.4781691 158.812934,30.3285368 C158.891909,30.1780956 158.933219,29.9981324 158.933219,29.7878382 C158.933219,29.58725 158.882189,29.4173971 158.782154,29.2774706 C158.682524,29.1379485 158.539559,29.0101544 158.354474,28.8948971 C158.169389,28.7800441 157.938134,28.6757059 157.663544,28.5802647 C157.387334,28.4852279 157.075079,28.3833162 156.724754,28.2729118 C156.383339,28.1625074 156.050834,28.0335 155.725214,27.8826544 C155.399999,27.7326176 155.109209,27.5397132 154.853249,27.3051544 C154.599314,27.0701912 154.393169,26.7854853 154.237649,26.4502279 C154.082129,26.115375 154.005584,25.7073235 154.005584,25.2268824 C154.005584,24.6380588 154.125059,24.1321397 154.365629,23.7119559 C154.606199,23.2917721 154.921694,22.9472132 155.312924,22.6774706 C155.702534,22.4065147 156.143984,22.2099706 156.633629,22.0846029 C157.124894,21.9600441 157.620209,21.8969559 158.121194,21.8969559 C158.722214,21.8969559 159.336194,22.0065515 159.961919,22.2269559 C160.587239,22.4465515 161.135609,22.7716985 161.606624,23.2023971 L159.969614,24.9272132 Z" id="Fill-29" fill="#000000"></path>
                    <polygon id="Fill-31" fill="#000000" points="103.814419 47.7636581 103.814419 37.1425919 110.966315 37.1425919 110.966315 39.303364 106.293425 39.303364 106.293425 41.312886 110.710355 41.312886 110.710355 43.3681066 106.293425 43.3681066 106.293425 45.5741728 111.23564 45.5741728 111.23564 47.7636581"></polygon>
                    <path d="M122.711396,42.3481397 C122.711396,41.8887279 122.638901,41.4628824 122.493101,41.0730294 C122.348111,40.6839853 122.142776,40.3483235 121.877501,40.0680662 C121.611821,39.7878088 121.293896,39.5706397 120.923321,39.4153456 C120.552746,39.2612647 120.146531,39.1832132 119.706296,39.1832132 C119.276186,39.1832132 118.877261,39.2612647 118.511951,39.4153456 C118.146236,39.5706397 117.828716,39.7878088 117.558176,40.0680662 C117.288041,40.3483235 117.077441,40.6839853 116.927186,41.0730294 C116.776931,41.4628824 116.701601,41.8887279 116.701601,42.3481397 C116.701601,42.8277721 116.774501,43.2665588 116.920301,43.6608603 C117.064886,44.0555662 117.270626,44.3964853 117.535901,44.6815956 C117.800771,44.9667059 118.116671,45.1867059 118.482386,45.3403824 C118.847291,45.4964853 119.251076,45.5745368 119.691311,45.5745368 C120.122636,45.5745368 120.523181,45.4964853 120.893756,45.3403824 C121.263926,45.1867059 121.584686,44.9667059 121.855226,44.6815956 C122.126171,44.3964853 122.335151,44.0555662 122.486216,43.6608603 C122.635661,43.2665588 122.711396,42.8277721 122.711396,42.3481397 L122.711396,42.3481397 Z M119.616791,47.7636176 C118.775201,47.7636176 118.003676,47.6439118 117.302216,47.4040956 C116.601566,47.163875 116.002571,46.8108235 115.506851,46.3461544 C115.011536,45.8814853 114.626381,45.3112647 114.350171,44.6363015 C114.075176,43.960125 113.937071,43.1885074 113.937071,42.3186176 C113.937071,41.5073676 114.082466,40.7685074 114.373256,40.0983971 C114.663641,39.4282868 115.066616,38.852 115.582991,38.3727721 C116.098556,37.8927353 116.709296,37.5202721 117.415211,37.2541691 C118.121531,36.9900882 118.885766,36.8578456 119.706296,36.8578456 C120.527231,36.8578456 121.289846,36.9900882 121.990496,37.2541691 C122.691551,37.5202721 123.297836,37.8911176 123.807731,38.3654926 C124.318841,38.8406765 124.716956,39.4100882 125.002481,40.07575 C125.288006,40.7414118 125.430566,41.4738015 125.430566,42.2733235 C125.430566,42.6833971 125.385206,43.066375 125.294891,43.4210441 C125.205386,43.7761176 125.085101,44.0980294 124.934846,44.3888015 C124.785401,44.6795735 124.614086,44.936375 124.424546,45.1612279 C124.233386,45.3860809 124.043846,45.5745368 123.852686,45.7237647 L123.852686,45.7686544 L126.091931,45.7237647 L126.091931,47.7636176 L119.616791,47.7636176 Z" id="Fill-33" fill="#000000"></path>
                    <path d="M137.589597,45.505989 C137.373327,46.0309154 137.065932,46.4814301 136.665792,46.8563199 C136.264842,47.231614 135.780867,47.5231949 135.215892,47.7338934 C134.649702,47.9441875 134.021142,48.0493346 133.330212,48.0493346 C132.628752,48.0493346 131.997762,47.9441875 131.438457,47.7338934 C130.876317,47.5231949 130.400847,47.231614 130.010427,46.8563199 C129.619602,46.4814301 129.319497,46.0309154 129.109302,45.505989 C128.898702,44.9810625 128.793402,44.3983051 128.793402,43.7585257 L128.793402,37.1427537 L131.347332,37.1427537 L131.347332,43.548636 C131.347332,43.8385993 131.384997,44.1131949 131.459517,44.3732316 C131.535252,44.6336728 131.649867,44.8662096 131.805387,45.0704375 C131.961312,45.2758787 132.165432,45.4388566 132.420987,45.5589669 C132.676137,45.6786728 132.985152,45.7385257 133.345197,45.7385257 C133.706457,45.7385257 134.014257,45.6786728 134.269002,45.5589669 C134.524152,45.4388566 134.733132,45.2758787 134.893107,45.0704375 C135.052272,44.8662096 135.168102,44.6336728 135.238167,44.3732316 C135.307827,44.1131949 135.343467,43.8385993 135.343467,43.548636 L135.343467,37.1427537 L137.912382,37.1427537 L137.912382,43.7585257 C137.912382,44.3983051 137.804652,44.9810625 137.589597,45.505989" id="Fill-35" fill="#000000"></path>
                    <path d="M146.278508,39.9777206 L144.925403,43.6234926 L147.599618,43.6234926 L146.278508,39.9777206 Z M149.133352,47.7634559 L148.305937,45.6787132 L144.189112,45.6787132 L143.408677,47.7634559 L140.613772,47.7634559 L145.075252,37.1427941 L147.569242,37.1427941 L151.987387,47.7634559 L149.133352,47.7634559 Z" id="Fill-37" fill="#000000"></path>
                    <polygon id="Fill-39" fill="#000000" points="154.688778 47.7636581 154.688778 37.1425919 157.273893 37.1425919 157.273893 45.5284743 161.389098 45.5284743 161.389098 47.7636581"></polygon>
                    <path d="M94.365,4.03384559 L94.365,50.7531103" id="Stroke-41" stroke="#221F20" stroke-width="3"></path>
                </g>
            </g>
        </g>
    </g>
</svg>
